<mxfile host="65bd71144e">
    <diagram id="4eEfkH5fL-3YN_BTOaLx" name="Page-1">
        <mxGraphModel dx="1386" dy="832" grid="1" gridSize="10" guides="1" tooltips="1" connect="1" arrows="1" fold="1" page="1" pageScale="1" pageWidth="1100" pageHeight="850" math="0" shadow="0">
            <root>
                <mxCell id="0"/>
                <mxCell id="1" parent="0"/>
                <mxCell id="25" value="Compose" style="rounded=0;whiteSpace=wrap;html=1;fillColor=#dae8fc;strokeColor=#6c8ebf;align=left;verticalAlign=top;fontSize=11;fontStyle=1;fontColor=#007FFF;" vertex="1" parent="1">
                    <mxGeometry x="400" y="270" width="460" height="250" as="geometry"/>
                </mxCell>
                <mxCell id="2" value="Server 67.205.169.166&lt;br&gt;(VM DigitalOcean = Droplet)&lt;br&gt;Ubuntu" style="rounded=0;whiteSpace=wrap;html=1;" parent="1" vertex="1">
                    <mxGeometry x="290" y="570" width="570" height="60" as="geometry"/>
                </mxCell>
                <mxCell id="3" value="Docker" style="rounded=0;whiteSpace=wrap;html=1;" parent="1" vertex="1">
                    <mxGeometry x="290" y="530" width="570" height="30" as="geometry"/>
                </mxCell>
                <mxCell id="17" style="edgeStyle=none;html=1;" parent="1" source="4" target="16" edge="1">
                    <mxGeometry relative="1" as="geometry"/>
                </mxCell>
                <mxCell id="4" value="Caddy&lt;br&gt;Servidor HTTP" style="rounded=0;whiteSpace=wrap;html=1;" parent="1" vertex="1">
                    <mxGeometry x="290" y="490" width="100" height="30" as="geometry"/>
                </mxCell>
                <mxCell id="9" style="edgeStyle=none;html=1;" parent="1" source="5" target="2" edge="1">
                    <mxGeometry relative="1" as="geometry"/>
                </mxCell>
                <mxCell id="5" value="MySQL&lt;br&gt;:3306" style="rounded=0;whiteSpace=wrap;html=1;" parent="1" vertex="1">
                    <mxGeometry x="570" y="480" width="70" height="30" as="geometry"/>
                </mxCell>
                <mxCell id="7" value="" style="edgeStyle=none;html=1;" parent="1" source="6" target="5" edge="1">
                    <mxGeometry relative="1" as="geometry"/>
                </mxCell>
                <mxCell id="15" style="edgeStyle=none;html=1;" parent="1" source="6" target="14" edge="1">
                    <mxGeometry relative="1" as="geometry"/>
                </mxCell>
                <mxCell id="6" value="MySQL Backup" style="rounded=0;whiteSpace=wrap;html=1;" parent="1" vertex="1">
                    <mxGeometry x="650" y="480" width="100" height="30" as="geometry"/>
                </mxCell>
                <mxCell id="8" value="Node-red&lt;br&gt;:1880 :2884" style="rounded=0;whiteSpace=wrap;html=1;" parent="1" vertex="1">
                    <mxGeometry x="410" y="480" width="70" height="30" as="geometry"/>
                </mxCell>
                <mxCell id="10" value="MongoDB Atlas" style="rounded=0;whiteSpace=wrap;html=1;" parent="1" vertex="1">
                    <mxGeometry x="20" y="570" width="190" height="60" as="geometry"/>
                </mxCell>
                <mxCell id="11" value="Connect&lt;br&gt;PM2" style="rounded=0;whiteSpace=wrap;html=1;fillColor=#fa6800;fontColor=#000000;strokeColor=#C73500;" parent="1" vertex="1">
                    <mxGeometry x="490" y="480" width="70" height="30" as="geometry"/>
                </mxCell>
                <mxCell id="12" value="Connect Management" style="rounded=0;whiteSpace=wrap;html=1;dashed=1;" parent="1" vertex="1">
                    <mxGeometry x="770" y="280" width="80" height="30" as="geometry"/>
                </mxCell>
                <mxCell id="14" value="Spaces&lt;br&gt;Armazenamento DigitalOcean" style="rounded=0;whiteSpace=wrap;html=1;" parent="1" vertex="1">
                    <mxGeometry x="890" y="570" width="190" height="60" as="geometry"/>
                </mxCell>
                <mxCell id="16" value="Internet" style="ellipse;shape=cloud;whiteSpace=wrap;html=1;" parent="1" vertex="1">
                    <mxGeometry x="200" y="700" width="120" height="80" as="geometry"/>
                </mxCell>
                <mxCell id="19" value="Queue Handler" style="rounded=0;whiteSpace=wrap;html=1;fillColor=#e3c800;fontColor=#000000;strokeColor=#B09500;" parent="1" vertex="1">
                    <mxGeometry x="490" y="320" width="70" height="30" as="geometry"/>
                </mxCell>
                <mxCell id="21" value="DB Insert" style="rounded=0;whiteSpace=wrap;html=1;fillColor=#e3c800;fontColor=#000000;strokeColor=#B09500;" parent="1" vertex="1">
                    <mxGeometry x="490" y="280" width="70" height="30" as="geometry"/>
                </mxCell>
                <mxCell id="22" value="Gateway" style="rounded=0;whiteSpace=wrap;html=1;fillColor=#e3c800;fontColor=#000000;strokeColor=#B09500;" parent="1" vertex="1">
                    <mxGeometry x="490" y="440" width="70" height="30" as="geometry"/>
                </mxCell>
                <mxCell id="23" value="UI Server&lt;br&gt;(BFF)" style="rounded=0;whiteSpace=wrap;html=1;fillColor=#e3c800;fontColor=#000000;strokeColor=#B09500;" parent="1" vertex="1">
                    <mxGeometry x="490" y="360" width="70" height="30" as="geometry"/>
                </mxCell>
                <mxCell id="24" value="API" style="rounded=0;whiteSpace=wrap;html=1;fillColor=#e3c800;fontColor=#000000;strokeColor=#B09500;" parent="1" vertex="1">
                    <mxGeometry x="490" y="400" width="70" height="30" as="geometry"/>
                </mxCell>
            </root>
        </mxGraphModel>
    </diagram>
</mxfile>